<svg width="625" height="602" viewBox="0 0 625 602" fill="none" xmlns="http://www.w3.org/2000/svg">
<path d="M275.55 511.5L275.78 512.35L275.85 513.06L275.95 514.67V515.78L275.92 518.21L275.86 519.75L275.8 523.25L275.82 525.39L275.86 526.3L275.96 527.98L276.04 528.57L276.21 529.58L276.32 529.75L277.12 530.28L278.05 530.57L278.71 530.68L280.15 530.86L281.04 530.92L282.94 531H284.06L287.47 531.07L289.07 531.19L289.59 531.3L290.47 531.57L290.69 531.76L291 532.2V532.5L290.65 533.24L290.01 533.59L289.41 533.7L288 533.89L286.94 533.94L285.81 533.97L285.15 533.99L283.74 534H274.86L275.18 562.59L275.5 591.18L277.86 593.09L280.41 594.48L282.32 594.93L283.34 594.91L285.41 594.71L286.48 594.38L288.62 593.54L289.68 592.89L292.28 591.58L292.97 591.35L293.22 591.32L293.64 591.31L293.73 591.4L293.82 592.01L293.58 592.6L293.33 592.95L292.76 593.71L292.37 594.13L291.53 595L291.04 595.45L288.89 597.27L287.7 598.09L285.28 599.63L284.17 600.11L282.44 600.78L281.51 601.03L279.61 601.47L278.62 601.61L274.54 601.93L272.48 601.76L268.37 601.22L266.47 600.63L264.6 600L263.74 599.61L262.06 598.77L261.31 598.28L260.22 597.37L259.42 596.53L259.03 596.04L257.48 593.93L256.94 592.89L255.89 590.07L255.64 588.87L255.54 588.1L255.37 586.45L255.3 585.39L255.18 583.1L255.14 581.65L255.07 578.54L255.05 576.62L255.03 574.63V573.53L255.01 571.25V570.01L255 567.43V566.02V563.12V534H251.06L249.39 533.94L248.46 533.83L248.1 533.76L247.44 533.58L247.2 533.47L246.81 533.24L246.71 533.11L246.59 532.83L246.63 532.67L246.8 532.35L246.98 532.18L247.44 531.84L247.77 531.66L248.52 531.3L249.01 531.12L252.01 530L254.18 529.18L255.01 528.87L255.78 528.48L256.42 528.06L256.8 527.78L258.47 526.48L259.46 525.62L261.53 523.77L262.63 522.72L264.86 520.53L265.95 519.37L269.12 516.12L271.06 514.22L271.89 513.46L273.42 512.09L273.96 511.66L274.46 511.28L274.64 511.17L274.96 511H275.04M125.74 530H127.97L128.24 560.14L128.5 590.29L131.09 592.22L134.41 593.98L136.84 594.62L138.12 594.68L140.71 594.6L142.04 594.29L144.69 593.49L146 592.81L150.5 590.5L150.77 564.78L151.03 539.07L148.53 537.42L146.85 536.04L146.49 535.29L146.71 534.98L146.98 534.69L147.23 534.55L147.77 534.29L148.15 534.17L148.98 533.93L149.49 533.82L150.6 533.6L151.26 533.5L153.32 533.12L154.93 532.78L155.79 532.59L159.3 531.75L160.74 531.34L165.25 530.39L166.66 530.21L167.25 530.18L168.36 530.14L168.74 530.18L171.5 530.5V594.16L174.37 596.63L176.26 598.5L176.65 599L176.74 599.17L176.86 599.48L176.8 599.54L176.47 599.64L176.02 599.72L175.7 599.76L174.14 599.94L173.03 600.04L170.62 600.25L169.19 600.35L166.21 600.55L164.59 600.64L160.37 600.86L158.06 600.94H157.13L155.41 600.91L154.74 600.84L153.52 600.67L153.07 600.53L152.26 600.19L151.99 599.95L151.51 599.42L151.37 599.08L151.14 598.32L151.09 597.86L151.02 596.85V596.25L150.83 594.65L150.45 594.13L150.08 594.15L149.19 594.38L148.47 594.78L147.71 595.23L147.25 595.53L146.28 596.17L145.7 596.56L143.87 597.66L142.43 598.42L141.66 598.78L138.52 600.15L137.22 600.55L132.73 601.64L130.5 601.81L126.06 601.92L123.98 601.62L121.93 601.26L120.96 601L119.06 600.42L118.19 600.05L116.49 599.25L115.73 598.77L114.28 597.75L113.66 597.17L111.7 595.24L110.63 594.03L110.2 593.4L109.41 592.09L109.1 591.32L108.55 589.69L108.34 588.69L107.98 586.52L107.85 585.16L107.63 582.24L107.56 580.43L107.5 578.54L107.47 577.5L107.43 575.34L107.41 574.15L107.38 571.68L107.36 570.33L107.34 567.53L107.33 566L107.25 557.04L107.23 554.27L107.22 552.97L107.19 550.44L107.18 549.3L107.16 547.09L107.15 546.13L107.13 544.32L107.12 543.58L107.1 542.23V541.74L107.08 540.92V540.73L106.9 539.41L106.63 538.66L106.43 538.34L105.38 537.22L104.5 536.82L102.73 535.81L102 535.17V534.98L102.23 534.8L102.59 534.64L102.87 534.55L104.23 534.13L105.2 533.88L107.31 533.35L108.55 533.07L111.14 532.49L112.51 532.2L115.28 531.63L116.63 531.37L119.3 530.87L120.5 530.67L122.78 530.3L123.67 530.18L125.28 530M214.5 529.5L217.68 529.52L219.57 529.56L220.41 529.59L223.51 529.74L224.73 529.87L226.97 530.17L227.87 530.39L229.54 530.88L230.25 531.2L234 532.9V540.53L233.95 543.54L233.86 545.13L233.77 545.72L233.58 546.76L233.44 547.07L233.13 547.57L232.92 547.61L232.46 547.57L232.17 547.34L231.55 546.76L231.17 546.27L230.36 545.16L229.88 544.4L228.86 542.76L228.27 541.74L226.61 539.04L225.57 537.51L225.06 536.87L224.06 535.66L223.56 535.17L222.54 534.25L222.02 533.89L219.83 532.7L218.53 532.4L217.19 532.16L216.44 532.09L214.89 532H214.01L211.14 532.12L209.51 532.32L208.8 532.5L207.43 532.91L206.79 533.2L205.54 533.85L204.9 534.28L203.1 535.64L202.29 536.5L202.03 537L201.59 538.07L201.47 538.78L201.26 540.34L201.19 541.39L201.21 543.98L201.44 545.51L201.69 546.19L202.28 547.52L202.74 548.13L203.76 549.31L204.46 549.86L205.98 550.95L206.95 551.47L209.03 552.52L210.31 553.05L213.03 554.11L214.65 554.66L218.08 555.79L220.08 556.4L225.83 558.53L229.18 560.18L230.61 561.12L233.32 563.08L234.43 564.17L236.5 566.43L237.29 567.67L238.7 570.23L239.17 571.63L239.94 574.49L240.08 576.03L240.2 579.18L240.01 580.87L239.48 584.32L238.97 586.16L237.3 589.63L235.5 592.05L234.35 593.22L231.9 595.51L230.52 596.52L227.68 598.43L226.21 599.14L224.56 599.87L223.66 600.15L221.76 600.66L220.64 600.85L218.25 601.19L216.78 601.31L213.64 601.52L211.71 601.59L208.01 601.66L205.74 601.65L204.7 601.6L200.73 601.32L198.98 601.01L195.6 600.28L194.01 599.72L190.86 598.47L189.25 597.64L186 595.95V587.97L186.08 584.87L186.19 583.05L186.28 582.33L186.47 581.03L186.58 580.63L186.83 580H186.96L187.54 580.37L188.1 580.96L188.43 581.4L189.88 583.44L190.62 584.75L193.51 589.24L195.54 591.82L196.6 592.9L198.75 594.92L199.87 595.73L202.13 597.19L203.29 597.71L205.63 598.61L206.83 598.84L209.25 599.16L210.48 599.11L212.96 598.84L214.22 598.49L216.74 597.64L218.01 597L220.94 595.19L222.32 593.9L222.77 593.14L223.53 591.53L223.73 590.52L224 588.36V586.99L223.83 584.87L223.54 583.58L223.29 582.99L222.73 581.85L222.33 581.31L221.45 580.27L220.88 579.78L219.65 578.82L218.89 578.36L217.28 577.44L216.31 576.98L214.27 576.08L213.08 575.62L210.59 574.69L209.15 574.21L204.75 572.67L202.15 571.68L201.01 571.19L198.82 570.23L197.86 569.74L196.02 568.77L195.22 568.27L193.69 567.26L193.02 566.73L191.74 565.65L191.18 565.08L189.13 562.66L188.29 561.23L186.49 557.32L185.73 554.65L185.57 553.31L185.39 550.63L185.5 549.31L185.88 546.68L186.26 545.41L187.17 542.89L187.82 541.7L189.25 539.35L190.15 538.26L192.07 536.15L193.22 535.2L195.62 533.38L197 532.61L198.8 531.61L199.85 531.07L200.35 530.86L202.27 530.13L203.4 529.93L204.58 529.75L205.27 529.69L206.74 529.59L207.63 529.57L209.51 529.52L210.64 529.51L213.05 529.5M25.5997 504.83L35.7597 504.97L40.5597 505.12L45.2697 505.28L47.4297 505.37L51.5897 505.57L53.3797 505.69L56.7497 505.92L58.0397 506.05L59.2697 506.18L59.7697 506.25L60.6897 506.39L61.0197 506.45L65.7997 507.75L68.8997 508.91L70.3897 509.63L73.3397 511.15L74.7497 512.04L77.5097 513.9L78.8197 514.95L81.3697 517.12L82.5597 518.32L84.8697 520.78L85.9197 522.11L87.9597 524.84L88.8597 526.29L90.5897 529.26L91.3397 530.82L92.3597 533.03L92.9197 534.3L93.1397 534.89L93.8797 537.19L94.0797 538.54L94.2597 539.95L94.3197 540.78L94.4097 542.55L94.4397 543.62L94.4797 545.9L94.4897 547.28L94.4997 550.22V552L94.4897 556.72L94.4697 559.31L94.4397 560.38L94.3697 562.38L94.3197 563.22L94.1797 564.79L94.0797 565.46L93.5797 567.92L93.1397 569.11L92.6597 570.31L92.3597 570.97L91.7197 572.36L91.3397 573.18L88.8697 577.74L87.0297 580.56L85.9997 581.86L83.8897 584.39L82.7197 585.55L80.3197 587.8L78.9997 588.82L76.3097 590.8L74.8397 591.69L71.8397 593.4L70.2297 594.15L66.9097 595.6L65.1397 596.23L61.4997 597.43L59.5597 597.93L56.3197 598.73L54.6897 599.01L53.0297 599.26L52.1397 599.37L50.2897 599.56L49.2497 599.63L47.0697 599.77L45.8197 599.81L43.1797 599.9L41.6497 599.93L38.4297 599.97L36.5497 599.98L32.5997 600H30.3097L22.0397 599.94L19.5497 599.9L18.4197 599.87L16.2297 599.81L15.2597 599.78L13.4197 599.71L12.6597 599.67L11.2297 599.59L10.6897 599.54L9.71973 599.45L9.43972 599.4L9.00972 599.3V599.25L9.23973 598.83L9.59972 598.45L9.86972 598.23L11.1197 597.3L11.9197 596.84L13.2697 595.87L13.9997 595L14.2897 594.36L14.8297 592.9L15.0297 591.84L15.2297 590.72L15.3097 590.05L15.4697 588.65L15.5297 587.84L15.6497 586.13L15.6997 585.14L15.7897 583.07L15.8197 581.89L15.8797 579.43L15.8997 578.04L15.9297 575.14L15.9397 573.52L15.9497 570.15V568.28L15.9397 564.4L15.9297 562.26L15.8997 557.83L15.8797 555.4L15.8397 550.38L15.8197 547.64L15.4997 510.78L8.57973 505L11.5397 504.93L18.2697 504.82L23.0997 504.81M39.4697 507.58L38.4797 507.65L38.2497 507.74L37.9197 508.35L37.7297 509.26L37.6397 510.01L37.4897 511.72L37.4297 512.91L37.3097 515.52L37.2597 517.21L37.2097 518.96L37.1897 519.94L37.1597 521.96L37.1397 523.08L37.1097 525.4L37.0897 526.67L37.0697 529.29L37.0597 530.72L37.0397 533.65L37.0297 535.24L37.0197 538.51L37.0097 540.28V543.89L36.9997 545.83V549.81V551.94L37.0097 560.74L37.0397 566.34L37.0497 568.97L37.0897 574.11L37.1097 576.46L37.1697 581.01L37.1997 583.02L37.2597 586.86L37.2897 588.47L37.3697 591.47L37.4097 592.62L37.4897 594.68L37.5297 595.31L37.5797 595.87L37.5997 596.04L37.6397 596.31L37.6697 596.33L37.9897 596.51L38.3297 596.59L39.1097 596.74L39.6297 596.8L42.0197 596.98H43.4197L47.2497 596.82L49.6497 596.58L50.7797 596.38L52.9697 595.94L53.9897 595.65L55.9897 595L56.9097 594.6L58.7197 593.74L59.5497 593.23L61.1597 592.14L61.8997 591.52L63.3397 590.2L63.9897 589.45L65.2497 587.89L65.8197 587.01L66.9097 585.2L67.3997 584.19L68.3297 582.11L68.7397 580.97L69.5197 578.62L69.8497 577.34L70.4797 574.71L70.7397 573.29L71.2197 570.36L71.4097 568.79L71.7597 565.56L71.8897 563.83L72.1097 560.3L72.1697 558.41L72.2597 554.55L72.2697 552.5L71.9397 542.24L71.3997 535.87L70.9797 533.04L70.5497 530.29L70.2897 529.02L69.7697 526.56L69.4797 525.46L68.8697 523.36L68.5397 522.45L67.8697 520.73L67.4997 520.04L65.5097 517.11L63.6997 515.02L62.6997 514.03L60.6497 512.12L59.6697 511.37L58.7097 510.66L58.2597 510.39L57.3997 509.88L57.0197 509.73L55.4597 509.27L53.9997 508.96L53.1297 508.81L49.2997 508.23L47.2497 508.02L45.2097 507.82L44.2497 507.74L42.3697 507.61L41.5597 507.59L40.0397 507.55M150.55 156.16L150.85 156.37L151.08 156.55L151.6 157L151.97 157.33L152.79 158.1L153.35 158.63L154.57 159.8L155.35 160.57L157.05 162.24L158.11 163.29L160.38 165.54L161.76 166.92L164.68 169.84L166.42 171.59L168.2 173.38L169.17 174.35L171.15 176.34L172.22 177.42L174.42 179.63L175.6 180.82L178.01 183.25L179.31 184.56L181.96 187.23L183.37 188.66L186.26 191.57L187.8 193.13L190.95 196.3L192.62 197.99L196.03 201.43L197.84 203.26L201.53 206.98L203.48 208.95L207.45 212.96L209.55 215.08L213.82 219.39L216.07 221.67L220.65 226.29L223.06 228.73L227.96 233.68L230.53 236.28L235.76 241.56L238.5 244.33L253.17 259.16L257.87 263.93L260.16 266.24L264.68 270.82L266.87 273.04L271.19 277.42L273.26 279.52L277.35 283.67L279.3 285.65L283.13 289.54L284.94 291.38L288.49 294.99L290.15 296.68L293.39 299.99L294.89 301.51L297.8 304.49L299.13 305.84L301.68 308.45L302.82 309.62L304.99 311.85L305.93 312.81L307.7 314.63L308.42 315.38L309.76 316.77L310.26 317.29L311.14 318.22L311.4 318.5L311.8 318.95L311.81 318.98L311.46 319.47L310.85 320.18L310.37 320.73L309.29 321.93L308.57 322.71L307.04 324.38L306.11 325.39L304.16 327.5L303.02 328.71L300.67 331.23L299.35 332.64L296.61 335.55L295.11 337.14L292.03 340.41L290.37 342.17L286.96 345.78L285.14 347.69L281.44 351.6L279.48 353.66L275.5 357.85L273.41 360.04L269.18 364.48L266.98 366.79L262.53 371.46L260.23 373.87L255.57 378.74L253.18 381.24L243.44 391.41L238.37 396.69L228.33 407.13L223.52 412.12L218.75 417.07L216.43 419.48L211.83 424.24L209.61 426.53L205.21 431.08L203.1 433.26L198.93 437.56L196.94 439.61L193.02 443.64L191.17 445.54L187.53 449.27L185.82 451.02L182.48 454.43L180.94 456.01L177.93 459.07L176.56 460.46L173.91 463.15L172.73 464.35L170.46 466.63L169.47 467.62L167.61 469.47L166.84 470.24L165.41 471.64L164.86 472.16L163.89 473.09L163.58 473.36L163.09 473.78L163.04 473.79L162.35 473.5L161.57 472.96L161.03 472.52L159.84 471.55L159.11 470.91L157.56 469.54L156.66 468.72L154.78 466.97L153.73 465.97L151.54 463.89L150.35 462.73L147.91 460.34L146.59 459.04L143.91 456.37L142.5 454.95L123.54 435.81L126.52 434.5L127.33 434.03L128.06 433.54L128.51 433.21L130.51 431.69L131.74 430.68L134.33 428.51L135.75 427.26L138.64 424.69L140.1 423.34L159.56 405.25L165.82 399.43L168.8 396.66L174.62 391.23L177.31 388.73L179.95 386.27L181.2 385.1L183.65 382.81L184.8 381.74L187.04 379.65L188.07 378.69L190.07 376.81L190.98 375.97L192.72 374.34L193.48 373.62L194.94 372.25L195.55 371.68L196.69 370.6L197.14 370.18L197.95 369.41L198.22 369.15L199.72 367.73L200.54 366.97L200.89 366.68L202.1 365.71L202.53 365.53L203.31 365.34L203.66 365.48L204.36 365.92L204.8 366.32L206.56 367.51L207.76 368H208.17L209.64 367.49L210.72 366.75L211.22 366.26L212.16 365.23L212.48 364.72L213 363.7V363.28L212.57 362.51L211.82 361.62L211.18 360.96L209.73 359.51L208.71 358.54L207.64 357.53L207.03 356.96L205.75 355.77L205.03 355.11L203.53 353.74L202.69 352.99L200.96 351.42L200.01 350.56L198.03 348.8L196.95 347.83L194.72 345.85L193.51 344.78L191.02 342.57L189.67 341.38L186.9 338.94L185.41 337.63L182.35 334.94L180.72 333.51L177.37 330.57L175.57 329L168.08 322.44L163.45 318.38L161.26 316.46L152.81 309.05L148.72 305.45L144.63 301.85L142.54 300.01L138.31 296.29L136.1 294.34L131.59 290.37L129.17 288.24L124.22 283.88L121.53 281.5L115.69 276.43L113.89 274.89L113.06 274.19L111.43 272.82L110.69 272.22L109.28 271.07L108.67 270.58L107.52 269.67L107.06 269.32L106.21 268.69L105.92 268.5L105.43 268.19L105.32 268.16L103.78 268.43L102.59 269.07L102.03 269.52L100.96 270.5L100.59 271.02L99.9997 272.06V272.5L100.59 273.87L101.45 275L102 275.5L103.41 276.97L104 277.77V277.95L103.85 278.27L103.6 278.67L103.42 278.97L103 279.62L102.73 280.03L102.15 280.89L101.8 281.4L100.3 283.61L99.3697 284.94L97.4197 287.75L96.3197 289.31L94.0697 292.51L92.8797 294.19L90.4597 297.59L89.2297 299.3L86.7797 302.7L85.5997 304.34L83.2597 307.54L82.1897 309L81.4197 310.05L80.7797 310.94L80.3897 311.47L78.6897 313.81L77.6397 315.27L75.4197 318.35L74.1597 320.11L71.5497 323.74L70.1497 325.69L64.3497 333.79L61.4197 337.89L58.5097 341.96L57.1197 343.91L54.3997 347.73L53.1497 349.48L50.9797 352.4L49.6197 354.11L49.0197 354.79L47.9097 356.02L47.4897 356.41L46.7697 357H46.5997L46.0797 356.66L45.4197 356.1L44.9397 355.68L43.8997 354.74L43.2597 354.13L41.8897 352.85L41.0997 352.09L39.4497 350.51L38.5297 349.63L36.6497 347.8L35.6397 346.81L31.4097 342.66L29.1297 340.4L19.7097 330.97L15.2797 326.45L10.9697 322.03L9.07973 320.05L7.22972 318.12L6.39973 317.24L4.79972 315.54L4.10973 314.79L0.719727 311.12L34.5997 275.81L42.1397 267.95L47.6597 262.2L50.5997 259.14L56.5897 252.91L59.6897 249.68L65.9497 243.16L69.1197 239.86L75.4697 233.25L78.6097 229.98L84.8497 223.48L87.8697 220.35L93.8197 214.16L96.6097 211.25L102.07 205.58L104.55 203L111.88 195.37L116.63 190.43L118.89 188.06L123.34 183.42L125.42 181.26L129.46 177.03L131.29 175.12L134.81 171.43L136.34 169.83L139.24 166.79L140.41 165.55L141.54 164.37L142.03 163.85L142.95 162.87L143.33 162.47L144.04 161.72L144.31 161.43L144.79 160.91L144.94 160.75L146.68 158.91L147.76 157.83L148.22 157.4L149.09 156.62L149.41 156.37L149.95 156H150.06M308.79 395.75L308.5 405.5L301.49 405.79L298.38 405.83L296.64 405.77L295.95 405.69L294.68 405.5L294.22 405.36L293.44 405.04L293.24 404.84L292.71 403.76L292.43 402.58L292.33 401.77L292.14 400.02L292.08 398.96L292 396.7V395.41L292.01 392.26L292.06 390.57L292.14 389.91L292.32 388.69L292.49 388.23L292.9 387.41L293.21 387.12L293.91 386.62L294.4 386.46L295.49 386.2L296.2 386.13L297.76 386.03L298.73 386.01L300.83 386H309.07M153.81 242.52L147.41 243.26L144.27 243.91L138.03 245.41L135.02 246.43L129.08 248.66L126.28 250.04L120.8 252.97L118.28 254.69L113.41 258.28L111.25 260.32L109.15 262.46L108.33 263.53L108.19 263.93L108.1 264.64L108.3 264.91L108.89 265.4L109.42 265.61L110.41 265.47L111.43 265.03L112.06 264.67L113.4 263.85L114.15 263.33L115.68 262.21L116.48 261.56L123.45 256.65L128.43 253.84L131.06 252.67L136.4 250.51L139.16 249.67L144.75 248.16L147.6 247.66L153.34 246.82L156.23 246.67L162.02 246.53L164.9 246.72L170.64 247.3L173.46 247.85L179.05 249.16L181.75 250.09L187.63 252.42L191.39 254.24L193.18 255.27L196.72 257.4L198.4 258.58L201.7 261.01L203.26 262.33L206.31 265.03L207.74 266.47L210.53 269.43L211.83 270.99L214.34 274.16L215.49 275.83L217.72 279.21L218.72 280.97L220.64 284.53L221.48 286.37L223.09 290.09L223.78 292L225.06 295.85L225.57 297.81L226.51 301.78L226.85 303.79L227.43 307.84L227.59 309.89L227.81 314L227.77 316.07L227.61 320.22L227.38 322.31L226.82 326.48L226.39 328.56L224.9 334.75L223.75 338.43L223.05 340.17L221.56 343.63L220.62 345.42L218.62 349.05L217.38 351.07L216.04 353.4L215.31 354.85L215.04 355.48L214.59 356.64L214.48 357.06L214.37 357.79L214.46 357.93L215.16 358.8L215.59 358.91L216.48 358.92L217.01 358.59L218.13 357.7L218.79 356.92L220.18 355.12L220.99 353.86L224.2 348.1L226.22 343.7L227.11 341.39L228.8 336.71L229.45 334.42L230.62 329.94L230.94 327.93L231.93 318.91L232.09 313.02L231.93 310.15L231.43 304.44L230.94 301.67L229.8 296.18L228.99 293.51L227.21 288.25L226.08 285.71L223.66 280.68L222.21 278.27L219.16 273.52L217.4 271.25L213.73 266.78L211.66 264.65L204.74 258.23L200.07 254.57L197.65 253.02L192.74 250.09L190.13 248.86L184.81 246.55L181.94 245.6L172.87 243.32L166.61 242.44L163.42 242.31L157.02 242.25L153.81 242.52Z" fill="#41C10C"/>
<path d="M459.71 529.51L461.75 529.54L462.61 529.57L464.22 529.64L464.9 529.7L466.19 529.85L466.75 529.95L468.86 530.48L469.92 530.94L470.99 531.43L471.59 531.74L472.84 532.4L473.58 532.8L478.63 536.12L481.62 538.71L482.92 540.17L485.38 543.21L486.39 544.88L488.26 548.3L488.96 550.15L491.01 557.47L491.68 562.42L491.69 564.88L491.5 569.76L491.1 572.14L490.1 576.83L489.3 579.06L487.53 583.41L486.38 585.42L483.89 589.3L482.39 591.02L479.23 594.29L477.42 595.64L473.65 598.16L471.55 599.09L469.76 599.81L468.81 600.1L466.84 600.64L465.75 600.84L463.49 601.2L462.21 601.33L459.56 601.54L458.05 601.6L453.39 601.64L450.53 601.52L449.21 601.37L446.64 601.03L445.44 600.77L443.09 600.18L441.99 599.8L439.82 598.96L438.79 598.44L436.76 597.33L435.77 596.67L433.82 595.28L432.86 594.46L430.94 592.76L429.98 591.79L426.57 587.82L424.77 585.05L424.05 583.51L422.72 580.3L422.2 578.43L421.22 574.5L420.82 572.16L420.18 565.77L420.21 561.61L420.44 559.6L421.06 555.64L421.58 553.75L422.75 550.03L423.53 548.29L425.24 544.89L426.28 543.33L428.49 540.3L429.77 538.95L432.46 536.35L433.97 535.23L437.11 533.13L438.84 532.28L442.23 530.77L444.25 530.12L445.41 529.93L446.61 529.77L447.3 529.71L448.75 529.61L449.6 529.58L451.39 529.53L452.45 529.51L454.68 529.5H456M592.4 497.37L596.13 497.72L597.77 498.2L599.36 498.72L600.08 499.06L601.47 499.79L602.08 500.23L603.24 501.16L603.72 501.7L604.62 502.83L604.96 503.47L605.55 504.79L605.73 505.53L606 507.05V507.88L605.83 509.82L605.54 510.99L605.32 511.51L604.83 512.51L604.51 512.94L603.82 513.76L603.41 514.1L602.53 514.73L602.03 514.97L600.99 515.4L600.41 515.54L599.21 515.75L598.56 515.77L597.22 515.76L596.5 515.67L594.24 515.16L592.89 514.57L592.18 514.08L590.73 512.93L589.86 512.07L588.95 511.17L588.45 510.63L587.39 509.49L586.79 508.83L585.02 506.89L584.04 505.83L583.63 505.42L582.87 504.66L582.55 504.38L581.96 503.88L581.71 503.72L580.84 503.32L580.49 503.4L579.83 503.75L579.45 504.12L579.05 504.75L578.79 505.39L578.66 505.8L578.14 507.69L577.91 508.91L577.45 511.51L577.25 512.96L576.88 515.93L576.74 517.45L576.49 520.47L576.42 521.89L576.31 524.63L576.32 525.79L576.4 527.93L576.51 528.66L576.64 529.33L576.72 529.56L576.91 529.94L577.02 530.01L578 530.31L579.09 530.49L579.79 530.57L582.98 530.85L584.79 530.89L587.16 530.95L588.46 531.01L588.98 531.04L589.95 531.12L590.32 531.17L590.98 531.28L591.21 531.35L591.88 531.7L591.9 531.97L591.76 532.58L591.49 533.02L590.76 533.48L589.9 533.72L589.31 533.8L588.02 533.94L587.23 533.97L585.58 534L584.64 533.97L579.94 533.86L578.68 533.85L578.22 533.86L577.42 533.87L577.25 533.88L576.92 534.24L576.73 534.82L576.65 535.32L576.49 536.43L576.43 537.22L576.31 538.95L576.26 540.06L576.17 542.47L576.14 543.96L576.08 547.13L576.06 549.02L576.02 553.02L576.01 555.36L576 560.26V592.15L578.92 595.08L581.45 597.14L582.24 597.62L582.58 597.77L583.21 598H583.42L584.54 598.29L585 598.73V599L584.68 599.22L584.16 599.36L583.75 599.42L582.83 599.54L582.22 599.59L580.92 599.69L580.12 599.74L578.45 599.82L577.48 599.85L575.45 599.91L574.31 599.93L571.95 599.97L570.64 599.98L567.96 600H566.5L559.32 599.94L557.16 599.9L556.18 599.87L554.28 599.81L553.44 599.78L551.85 599.71L551.18 599.67L549.94 599.59L549.47 599.54L548.64 599.45L548.39 599.4L548.02 599.3V599.25L548.28 598.84L548.69 598.48L548.99 598.28L550.38 597.41L551.27 597L552.76 596.15L553.56 595.51L553.88 595.14L554.45 594.37L554.66 593.94L555.02 593.02L555.13 592.5L555.26 591.33L555.35 590.03L555.39 589.15L555.47 587.23L555.5 586.07L555.58 583.62L555.61 582.23L555.68 579.34L555.71 577.75L555.76 574.5L555.79 572.76L555.87 565.57L555.88 561.75L556 534H527V593.85L529.63 595.93L531.88 597.39L532.57 597.73L532.86 597.84L533.4 598H533.58L534.68 598.29L535.33 598.73L535.5 599V599.16L535.34 599.23L534.93 599.37L534.57 599.43L533.75 599.55L533.2 599.6L531.98 599.7L531.23 599.74L529.62 599.82L528.67 599.86L526.67 599.91L525.53 599.94L523.15 599.97L521.83 599.98L519.07 600H517.56L513.4 599.98L510.87 599.95L509.72 599.93L507.52 599.88L506.54 599.85L504.68 599.78L503.89 599.74L502.39 599.65L501.79 599.59L500.67 599.48L500.25 599.42L499.53 599.29L499.32 599.22L499 599.08V599L499.31 598.29L499.76 598H500.05L500.65 597.81L501.19 597.5L501.5 597.28L502.87 596.22L503.55 595.55L506 593.09V534H502.5L500.92 533.91L500.12 533.76L499.83 533.64L499.34 533.37L499.2 533.18L499 532.76V532.5L499.52 531.44L500.29 531H500.78L502.85 530.52L504.25 529.81L504.87 529.32L506.02 528.29L506.39 527.73L507 526.62V526.1L507.27 524.54L507.69 523.23L508 522.47L508.7 520.9L509.13 520.05L510.03 518.31L510.54 517.42L512.73 513.82L513.92 512.18L515.11 510.58L515.69 509.87L516.86 508.52L517.41 507.98L521.81 504.12L524.72 502.06L526.24 501.26L529.32 499.8L530.98 499.26L534.41 498.29L536.32 497.96L541.82 497.44L545.16 497.59L546.66 497.91L549.54 498.71L550.81 499.35L553.23 500.81L554.25 501.77L555.78 503.66L556.47 505.02L556.67 505.73L556.95 507.16V507.88L556.84 509.29L556.65 509.97L556.18 511.3L555.82 511.91L555 513.07L554.48 513.56L553.34 514.49L552.65 514.83L551.21 515.43L550.39 515.59L546.89 515.72L544.69 515.24L543.63 514.7L541.54 513.41L540.5 512.46L538.41 510.33L537.35 508.93L534.76 505.8L533.3 504.35L532.69 503.93L531.54 503.29L531.07 503.26L530.2 503.4L529.85 503.75L529.38 504.47L529.08 505.16L528.94 505.6L528.4 507.59L528.18 508.86L527.75 511.55L527.58 513.04L527.28 516.09L527.19 517.64L527.04 520.72L527.03 522.16L527.05 524.94L527.14 526.1L527.35 528.25L527.53 528.97L527.73 529.63L527.85 529.85L528.1 530.21L528.25 530.26L529.56 530.46L531.15 530.59L532.22 530.64L534.51 530.75L535.82 530.79L538.56 530.87L540 530.89L544.41 530.9L546.87 530.83L547.89 530.75L549.81 530.55L550.59 530.39L552.06 530.01L552.67 529.73L553.79 529.13L554.25 528.73L555.11 527.86L555.48 527.31L556.19 526.12L556.52 525.4L557.17 523.86L557.5 522.95L559.58 517.93L561.1 514.98L561.95 513.66L563.74 511.11L564.76 509.93L566.91 507.61L568.15 506.48L573.85 502.32L577.94 500.17L580.05 499.42L584.28 498.11L586.36 497.77L590.47 497.3M454.55 531.22L453.53 531.52L451.41 532.28L450.19 532.9L448.27 534.07L447.24 534.95L446.82 535.49L446 536.67L445.62 537.43L444.88 539.08L444.48 540.15L443.44 543.61L443.2 544.87L443.1 545.58L442.91 547.08L442.84 547.95L442.72 549.8L442.67 550.9L442.59 553.23L442.57 554.61L442.52 557.53L442.51 559.25L442.5 562.88V565L442.56 572.48L442.68 576.81L442.77 578.67L443 582.2L443.16 583.7L443.52 586.54L443.76 587.74L444.27 589.99L444.59 590.92L445.28 592.69L445.69 593.42L446.57 594.79L447.09 595.37L448.19 596.46L448.82 596.94L450.66 598.04L451.76 598.37L454.04 598.88L455.25 598.91L457.69 598.82L458.85 598.55L461.13 597.85L462.11 597.28L463.52 596.18L464.41 595.21L464.83 594.61L465.66 593.33L466.05 592.56L466.82 590.95L467.18 590.03L468.34 586.49L468.61 585.26L468.72 584.56L468.92 583.11L468.99 582.25L469.12 580.44L469.16 579.35L469.24 577.04L469.27 575.64L469.31 572.69V570.93L469.32 567.2V565L469.25 557.33L469.13 552.96L469.03 551.1L468.79 547.6L468.62 546.13L468.23 543.36L467.96 542.21L467.39 540.05L467.03 539.16L466.24 537.48L465.76 536.78L464.74 535.46L464.13 534.88L462.84 533.79L462.08 533.27L459.17 531.7L457.35 531.14L456.42 531.11M501.68 202.5L505.94 206.79L508.93 209.81L510.5 211.39L516.93 217.87L520.36 221.32L527.32 228.34L530.93 231.97L538.21 239.3L541.88 243L549.25 250.41L552.88 254.07L560.11 261.34L563.6 264.85L570.47 271.76L573.7 275.01L576.88 278.21L578.41 279.75L581.42 282.77L582.84 284.2L624.35 325.9L619.99 330.7L618.6 332.19L617.22 333.65L616.33 334.59L614.42 336.6L613.29 337.79L610.93 340.26L609.61 341.64L606.87 344.5L605.39 346.04L602.37 349.19L600.77 350.85L594.2 357.68L590.78 361.22L565.93 386.93L561.84 383.24L557.75 379.54L549.3 388.39L540.85 397.23L543.67 400.35L545.95 402.76L546.61 403.41L546.86 403.65L547.33 404.08L547.46 404.17L547.78 404.55L547.83 404.89L547.74 405.13L547.49 405.69L547.21 406.08L546.56 406.96L546.06 407.56L544.92 408.87L544.14 409.73L542.43 411.58L541.32 412.75L538.94 415.26L537.47 416.79L535.94 418.37L535.11 419.24L533.38 421.02L532.44 422L529.54 425L527.25 427.38L525.95 428.73L523.25 431.53L521.79 433.05L518.79 436.16L517.21 437.8L510.7 444.57L507.36 448.04L500.69 454.98L497.56 458.25L494.45 461.48L492.96 463.02L490.01 466.05L488.62 467.47L485.9 470.24L484.64 471.5L482.21 473.95L481.13 475.02L479.05 477.07L478.17 477.93L476.52 479.52L475.87 480.12L474.71 481.2L474.33 481.51L473.71 482H473.63L472.84 481.61L472.02 481.01L471.51 480.57L470.43 479.61L469.84 479.03L468.62 477.81L468 477.15L467.15 476.26L466.21 475.28L465.55 474.62L464.13 473.16L463.25 472.27L461.39 470.36L460.29 469.25L458 466.92L456.71 465.61L454.02 462.88L452.54 461.38L449.49 458.29L447.84 456.61L444.45 453.17L442.63 451.34L438.93 447.59L436.97 445.61L432.98 441.57L430.89 439.46L426.64 435.16L424.43 432.93L419.96 428.41L417.65 426.07L408.19 416.52L403.23 411.5L393.15 401.34L387.96 396.1L312.42 319.9L300.36 332.2L298.81 333.79L297.48 335.16L296.67 335.99L294.97 337.74L293.99 338.76L291.94 340.88L290.79 342.07L288.42 344.52L287.13 345.86L284.46 348.63L283.03 350.12L280.09 353.17L278.53 354.79L275.35 358.09L273.67 359.83L270.27 363.37L268.5 365.22L267.22 366.54L269.18 364.48L273.41 360.04L275.5 357.85L279.48 353.66L281.44 351.6L285.14 347.69L286.96 345.78L290.37 342.17L292.03 340.41L295.11 337.14L296.61 335.55L299.35 332.64L300.67 331.23L303.02 328.71L304.16 327.5L306.11 325.39L307.04 324.38L308.57 322.71L309.29 321.93L310.37 320.73L310.85 320.18L311.46 319.47L311.81 318.98L311.8 318.95L311.4 318.5L311.14 318.22L310.26 317.29L309.76 316.77L308.42 315.38L307.7 314.63L305.93 312.81L304.99 311.85L302.82 309.62L301.68 308.45L299.13 305.84L297.8 304.49L294.89 301.51L293.39 299.99L290.15 296.68L288.49 294.99L284.94 291.38L283.13 289.54L279.3 285.65L277.35 283.67L273.26 279.52L271.19 277.42L266.87 273.04L264.68 270.82L260.16 266.24L257.87 263.93L253.17 259.16L238.5 244.33L235.76 241.56L230.53 236.28L227.96 233.68L223.06 228.73L220.65 226.29L220.49 226.13L222.62 228.28L226.74 232.44L235.17 240.94L239.66 245.47L244.2 250.05L246.54 252.42L251.27 257.19L253.71 259.65L258.63 264.62L261.16 267.18L266.27 272.34L268.91 275L311.96 318.5L323.23 306.81L328.4 301.45L332.2 297.51L334.13 295.52L337.96 291.55L339.73 289.73L341.47 287.94L342.27 287.11L343.82 285.51L344.51 284.81L346.96 282.27L348.97 280.19L350.13 278.99L352.53 276.49L353.86 275.11L356.58 272.28L358.03 270.77L364.03 264.52L367.17 261.24L373.47 254.66L376.49 251.5L385.9 241.66L392.27 235L395.26 231.88L398.21 228.8L399.59 227.36L402.28 224.55L403.5 223.28L405.85 220.83L406.86 219.78L408.77 217.79L409.53 217L412.01 214.42L413.83 212.53L414.81 211.51L418.88 207.28L421.01 205.06L425.3 200.59L427.36 198.46L429.39 196.34L430.35 195.35L432.22 193.39L433.08 192.5L438.58 186.78L442.44 182.77L444.31 180.82L447.99 177L449.61 175.33L451.18 173.7L451.88 172.97L453.23 171.58L453.79 171L462.02 162.5M161.03 472.52L161.57 472.96L161.02 472.52L160.78 472.32M202.32 434.07L198.63 437.88L196.85 439.71L193.34 443.33L191.67 445.05L188.38 448.43L186.82 450.03L183.75 453.17L182.32 454.64L179.51 457.5L178.21 458.83L175.67 461.4L174.52 462.57L172.28 464.83L171.28 465.84L169.36 467.76L168.53 468.59L166.95 470.15L166.3 470.79L165.08 471.97L164.62 472.41L163.78 473.19L163.52 473.43L163.17 473.72L163.58 473.36L163.89 473.09L164.86 472.16L165.41 471.64L166.84 470.24L167.61 469.47L169.47 467.62L170.46 466.63L172.73 464.35L173.91 463.15L176.56 460.46L177.93 459.07L180.94 456.01L182.48 454.43L185.82 451.02L187.53 449.27L191.17 445.54L193.02 443.64L196.94 439.61L198.93 437.56L203.1 433.26L204.19 432.13M330 428H314V409H330M309 428H292V409H309M494.59 301.23L493.37 301.62L492.74 302.08L491.47 303.16L490.85 304L489.83 305.5L489.51 306.31L489.52 306.74L489.68 307.66L489.95 308.3L490.6 309.75L491.13 310.8L492.71 314.56L493.42 316.9L493.61 317.99L493.86 320.1L493.81 321.06L493.62 322.91L493.35 323.73L492.71 325.3L492.22 325.96L491.15 327.22L490.45 327.73L488.95 328.66L488.04 328.99L486.11 329.57L485 329.71L480.98 330.81L479.7 331.36L479.13 331.68L478.07 332.32L477.67 332.65L476.1 333.75L475.01 334.3L474.41 334.48L473.17 334.79L472.45 334.88L470.94 335H470.05L466.26 335.38L465.28 335.65L464.91 335.82L464.27 336.17L464.1 336.38L462.27 337.64L460.61 338.23L459.72 338.38L457.93 338.56L457.16 338.47L455.71 338.18L455.28 337.82L454.57 337.06L454.01 336.31L453.7 335.86L452.44 333.87L451.91 332.82L450.37 330.29L449.78 329.76L449.41 329.57L448.59 329.26L448.04 329.17L446.85 329.05H446.07L444.38 329.1L443.29 329.19L440.96 329.39L439.51 329.55L436.39 329.88L434.5 330.09L430.68 330.55L428.47 330.85L427.53 330.99L425.75 331.29L425.01 331.45L423.63 331.76L423.07 331.92L422.04 332.25L421.65 332.43L420.94 332.79L420.7 332.99L420 333.82V334.32L420.17 334.73L420.44 335.13L420.65 335.39L421.68 336.55L422.42 337.3L424.06 338.89L425.05 339.78L427.12 341.61L428.25 342.55L438.36 351.12L441.74 354.04L443.36 355.45L446.53 358.22L447.98 359.51L450.79 362.01L452 363.1L454.28 365.18L455.17 366.01L456.02 366.8L456.36 367.14L457.01 367.76L457.25 368.01L457.68 368.46L457.81 368.61L458 368.85V368.9L457.82 369.34L457.54 369.79L457.34 370.07L456.37 371.33L455.75 372.01L455.1 372.75L454.49 373.45L454.1 373.9L453.29 374.84L452.82 375.4L451.83 376.55L451.29 377.19L448.98 379.91L447.69 381.43L445.06 384.55L443.72 386.15L439.81 390.77L437.4 393.57L436.39 394.74L435.4 395.86L434.98 396.34L434.16 397.25L433.82 397.62L433.21 398.29L432.98 398.53L432.59 398.93L432.49 399.01L431.88 399.31L431.35 399.3L430.93 399.12L429.99 398.64L429.29 398.16L428.54 397.64L428.1 397.31L427.15 396.6L426.6 396.16L425.43 395.23L424.75 394.68L423.33 393.52L422.51 392.84L420.8 391.41L419.83 390.6L417.81 388.89L416.67 387.92L414.31 385.9L412.99 384.77L410.25 382.43L408.73 381.13L405.59 378.43L403.87 376.94L400.3 373.87L398.34 372.19L395.42 369.78L393.63 368.43L392.87 367.91L391.47 367L390.98 366.75L390.15 366.41L390.01 366.5L389.27 367.64L389.03 368.84L389.04 369.58L389.14 371.1L389.31 371.9L389.75 373.48L390.09 374.2L390.63 374.91L391.31 375.65L391.8 376.14L392.86 377.19L393.52 377.82L394.91 379.14L395.7 379.88L397.36 381.42L398.27 382.25L400.15 383.96L401.14 384.86L405.29 388.56L407.47 390.48L411.87 394.34L414.02 396.19L418.25 399.81L420.15 401.4L422 402.94L422.84 403.63L424.48 404.96L425.19 405.53L426.55 406.59L427.1 407.01L428.13 407.77L428.5 408.01L430.22 409.06L430.98 409.37L432.46 409.86L433.15 409.89L434.53 409.82L435.23 409.58L436.66 408.96L437.45 408.44L438.24 407.75L439.05 406.94L439.58 406.38L440.72 405.15L441.4 404.4L442.83 402.81L443.63 401.9L445.29 400L446.19 398.96L448.04 396.82L449.02 395.67L453.05 390.9L455.16 388.35L458.57 384.22L461.07 381.21L462.4 379.6L467.91 372.95L470.77 369.5L476.51 362.57L479.23 359.28L481.91 356.04L483.17 354.52L485.63 351.55L486.75 350.2L493.06 342.5L494.95 340.14L495.82 339.06L497.49 336.95L498.23 336.01L499.63 334.2L500.21 333.43L501.31 331.99L501.72 331.42L502.45 330.39L502.67 330.05L503 329.49V329.41L502.56 328.4L501.92 327.8L501.51 327.64L499.92 326.64L498.98 325.64L498.57 325.02L497.8 323.7L497.5 322.94L496.93 321.39L496.73 320.56L496.16 317.14L496.28 315.48L496.46 313.85L496.66 313.09L497.14 311.63L497.5 311L498.64 308.29L498.97 306.59L498.96 305.83L498.81 304.36L498.58 303.75L498.03 302.61L497.64 302.2L496.78 301.48L496.26 301.31L495.18 301.11M490.85 284.09L489.98 284.24L489.71 284.39L489.26 284.74L489.15 285.01L489 285.62V286.04L489.69 289.46L490.77 291.81L491.55 292.93L493.26 295.09L494.28 296L496.41 297.68L497.57 298.25L500.75 300.21L502.1 301.6L502.41 302.39L502.79 304.04L502.64 305.02L502.11 307.08L501.52 308.31L500.33 311.65L500.04 312.81L499.95 313.35L499.8 314.37L499.79 314.79L500.36 317.99L501.32 320.3L502.02 321.41L503.52 323.56L504.39 324.46L506.19 326.08L507.12 326.56L508.38 327.32L508.98 327.81L509.15 328.04L509.43 328.51L509.45 328.75L509.41 329.21L509.28 329.45L508.9 329.99L508.44 330.61L508.12 331.02L507.41 331.93L506.98 332.49L506.06 333.65L505.53 334.32L503.24 337.18L501.9 338.84L499.11 342.28L497.61 344.11L494.23 348.26L492.39 350.54L491.66 351.46L490.33 353.19L489.83 353.87L488.93 355.13L488.63 355.62L488.13 356.5L488 356.84L487.83 357.44L487.84 357.67L488.17 358.42L488.61 358.73L489.82 359.56L490.99 360.34L491.71 360.82L494.85 362.9L496.5 363.98L498 365.06L499.25 366.04L499.97 366.64L501.49 367.92L502.33 368.66L504.06 370.18L504.99 371.02L508.85 374.55L510.89 376.49L515 380.44L516.99 382.45L520.9 386.36L522.67 388.1L524.39 389.79L525.19 390.57L526.73 392.07L527.42 392.72L528.73 393.98L529.29 394.51L530.33 395.48L530.74 395.85L531.48 396.51L531.71 396.7L532.1 397H532.14L532.53 396.75L533.01 396.35L533.35 396.05L534.09 395.37L534.54 394.95L535.49 394.04L536.04 393.51L538.38 391.22L539.73 389.88L542.5 387.1L543.95 385.63L546.84 382.67L548.22 381.24L550.92 378.44L552.08 377.2L553.21 376L553.71 375.46L554.66 374.43L555.05 373.99L555.78 373.16L556.05 372.84L556.53 372.27L556.65 372.08L557.25 370.71L557.22 370.22L557.11 369.94L556.84 369.33L556.6 368.95L556.04 368.15L555.63 367.65L554.73 366.58L554.14 365.92L552.85 364.52L552.05 363.66L550.33 361.84L549.3 360.75L545.36 356.6L542.97 354.04L541.87 352.85L539.76 350.54L538.8 349.46L536.95 347.35L536.11 346.36L534.51 344.43L533.79 343.52L532.41 341.73L531.8 340.88L529.55 337.56L528.7 335.98L527.15 332.85L526.59 331.26L525.6 328.05L525.26 326.32L524.68 322.74L524.48 320.73L524.15 316.52L524.03 314.09L523.66 308.44L523.36 305.05L523.18 303.62L522.82 300.97L522.63 300.02L522.44 299.12L522.34 298.78L522.15 298.18L522.05 298L520.39 295.34L519.07 293.67L518.34 292.91L516.82 291.46L516 290.85L514.35 289.69L513.5 289.25L511.6 288.4L510.04 287.81L509.14 287.52L505.32 286.34L503.27 285.83L499.15 284.86L497.32 284.54L495.54 284.25L494.77 284.16L493.32 284.02H492.75M414.43 340L413.93 340.21L413.42 340.56L413.1 340.82L411.61 342.09L410.65 343L408.63 344.96L407.51 346.1L405.21 348.46L404.05 349.69L401.76 352.17L400.7 353.35L398.67 355.65L397.85 356.64L397.07 357.59L396.74 358.01L396.14 358.81L395.91 359.13L395.51 359.73L395.41 359.95L395.25 360.31L395.28 360.4L395.5 360.72L395.81 361.07L396.03 361.3L397.13 362.4L397.94 363.16L399.72 364.83L400.83 365.83L403.19 367.96L404.55 369.16L407.37 371.66L408.92 373.01L412.1 375.77L413.78 377.22L420.73 383.16L424.3 386.15L425.88 387.45L426.61 388.03L428.02 389.13L428.61 389.57L429.7 390.37L430.08 390.62L430.72 391H430.82L431.21 390.76L431.64 390.38L431.93 390.1L432.56 389.46L432.93 389.05L433.72 388.2L434.16 387.7L436.05 385.55L437.1 384.3L439.27 381.72L440.37 380.38L442.56 377.68L443.57 376.4L445.52 373.92L446.31 372.87L447.07 371.85L447.38 371.41L447.97 370.58L448.19 370.25L448.58 369.64L448.68 369.44L448.84 369.09L448.82 369.03L448.35 368.45L447.7 367.79L447.23 367.34L446.19 366.37L445.54 365.78L444.17 364.54L443.38 363.84L439.98 360.85L438.02 359.17L433.98 355.7L431.88 353.94L427.69 350.42L425.72 348.78L423.77 347.17L422.85 346.42L421.06 344.97L420.25 344.32L418.7 343.07L418.02 342.55L416.75 341.56L416.24 341.18L415.32 340.51L415.02 340.31L414.51 340M483.84 288.23L483.04 288.43L482.57 288.61L481.4 289.66L481.22 290.76L481.42 291.55L481.55 292.79L481.39 293.49L481.15 293.83L480.57 294.5L480.09 294.87L479.01 295.63L478.25 296.08L474.5 298.54L472.61 300.04L471.93 300.76L470.76 302.16L470.43 302.85L469.92 304.22L469.88 304.92L469.8 305.93L469.73 306.34L469.68 306.4L469.58 306.45L469.52 306.35L469.39 306.04L469.31 305.75L468.56 304.37L467.82 304.04L467.31 304.18L466.2 304.65L465.5 305.2L463.98 306.49L463.06 307.44L461.28 309.41L460.54 310.49L460.35 311.01L460.08 312.09V312.75L460.16 314.18L460.29 315.14L460.48 316.88L460.51 317.7L460.48 317.93L460.39 318.29H460.3L460.1 318.18L459.95 317.95L459.3 316.41L459.02 315.23V314.75L458.54 313.4L457.82 313.03L457.3 313.09L456.18 313.39L455.53 313.78L454.17 314.74L453.45 315.45L452.27 316.97L451.69 318.1L451.51 318.72L451.22 319.99L451.18 320.68V322.1L451.29 322.87L451.58 324.43L451.83 325.27L452.4 326.98L452.79 327.88L453.65 329.74L454.19 330.71L455.34 332.7L456.02 333.75L456.92 334.93L457.4 335.34L458.34 336H458.66L459.53 335.78L460.22 335.44L460.61 335.19L462.25 334L463.05 333.26L464.59 331.72L465.14 330.99L465.64 330.29L465.8 329.98L466.05 329.39V329.16L466.15 328.45L466.29 328.25L466.41 328.29L466.69 328.48L466.9 328.72L467.36 329.3L467.67 329.75L469.04 331.13L470.08 331.72L470.63 331.86L471.77 332.05L472.34 332L473.48 331.82L474.03 331.6L475.1 331.08L475.57 330.71L476.48 329.89L476.84 329.38L477.49 328.29L477.7 327.65L478.02 326.33L478.03 325.6L478.06 322.5L480.54 325.31L482.53 327.01L483.87 327.56H484.57L486.01 327.35L486.78 326.96L488.37 326L489.25 325.23L490.59 323.34L490.94 321.75L490.84 320.7L490.69 319.59L490.54 318.96L490.21 317.63L489.96 316.88L489.43 315.3L489.09 314.4L488.37 312.54L487.93 311.49L484.86 304.11L487.06 301.14L489.26 298.16L486.97 293.33L485.29 289.84L484.88 288.99L484.74 288.71L484.51 288.26L484.48 288.23M498 261L496.27 262.52L495.35 263.5L495.02 263.96L494.43 264.87L494.26 265.29L494 266.13V266.51L493.5 268L493.07 268.55L492.77 268.85L492.09 269.49L491.63 269.86L490.65 270.62L490.03 271.07L488.7 271.99L487.89 272.52L486.18 273.64L485.15 274.29L483 275.64L481.75 276.41L476.89 279.42L473.93 281.25L472.7 282.02L471.51 282.75L471 283.07L470.03 283.68L469.64 283.92L468.92 284.37L468.67 284.53L468.24 284.8L468.15 284.86L467.31 286L467.34 286.49L467.44 286.8L467.71 287.46L467.93 287.87L469.05 289.38L469.84 290H470.14L470.62 289.84L471.18 289.59L471.57 289.4L472.43 288.97L472.95 288.69L474.06 288.1L474.7 287.76L477.45 286.24L479.05 285.33L482.38 283.41L484.17 282.36L488.62 279.76L491.04 278.38L492.02 277.85L493.84 276.92L494.56 276.61L495.88 276.1L496.4 275.99L497.35 275.87L497.73 275.96L498.42 276.22L498.71 276.48L499.27 277.09L499.53 277.52L500.07 278.46L500.37 279.04L501.3 280.18L502.28 280.89L502.97 281.24L504.5 281.94L505.5 282.29L507.67 283.02L509.03 283.41L512.51 284.48L514.57 285.2L515.49 285.57L517.26 286.33L518.04 286.73L519.55 287.54L520.21 287.97L522.65 289.79L523.61 290.87L525.38 293.15L526.11 294.54L528.5 299.09L531.25 296.03L533.33 292.87L534 290.69V289.5L533.53 286.59L533.06 285.62L532.68 285.07L531.81 283.92L531.19 283.24L529.8 281.8L528.87 280.92L526.85 279.05L525.56 277.91L524.23 276.73L523.48 276.08L521.93 274.75L521.08 274.02L519.31 272.51L518.34 271.68L516.34 269.98L515.25 269.06L502 257.83M476.09 262.14L475.2 262.42L474.77 262.65L473.95 263.2L473.57 263.57L472.52 265.41L472.11 267.02L472.06 267.92V269.74L472.22 270.63L472.65 272.35L473.04 273.07L473.65 274.17L473.96 274.46L474.62 274.88L475.1 274.81L475.61 274.69L475.93 274.56L476.61 274.25L477.03 274.01L477.93 273.5L478.48 273.17L479.64 272.44L480.34 272L481.79 271.06L482.58 270.53L482.89 270.3L483.92 269.47L484.16 269.12L484.46 268.43L484.4 268.06L484.15 267.27L483.87 266.75L481.63 263.85L479.85 262.57L478.91 262.28L477 261.93M491.32 250.32L490.66 250.39L490.3 250.53L489.57 250.87L489.14 251.15L487.75 252.29L487.2 253.11L487.12 253.57L487.07 254.55L487.22 255.13L487.65 256.34L488.04 257.07L488.71 258.16L489.08 258.46L489.85 258.91L490.29 258.89L491.23 258.69L491.79 258.35L492.97 257.5L493.69 256.83L495.33 254.99L495.88 253.96V253.51L495.68 252.65L495.31 252.26L494.38 251.47L493.64 251.07L492.37 250.5L491.65 250.31M455.19 246.17L454.86 246.29L454.31 246.61L454.13 246.9L453.82 247.59L453.68 248.11L453.54 250.32L454.02 251.43L454.58 251.83L455.92 252.55L456.95 252.78L458.05 252.99L458.7 253.07L460.05 253.21L460.83 253.26L464.12 253.47L465.44 253.56L467.88 253.71L468.83 253.75L470.55 253.82H471.19L472.31 253.78L472.7 253.72L473.35 253.56L473.55 253.43L473.86 253.13L473.92 252.92L474 251.91V251.12L473.88 249.48L473.57 248.77L473.19 248.54L472.27 248.15L471.48 248L470.62 247.86L470.08 247.79L468.94 247.65L468.25 247.58L462.98 246.95L461.22 246.73L460.44 246.63L458.96 246.44L458.39 246.37L456.18 246.14M468.44 228L467.33 228.51L466.27 229.25L465.75 229.73L464.8 230.83L464.71 231.56L465.03 232.07L465.41 232.61L465.71 232.95L466.38 233.68L466.84 234.13L467.84 235.09L468.48 235.68L469.84 236.93L470.67 237.69L472.54 239.36L473.41 240.11L475.1 241.53L475.82 242.1L477.15 243.13L477.63 243.45L478.44 243.96H478.6L479.86 243.44L480.91 242.65L481.38 242.13L482.17 240.95L482.19 240.18L481.85 239.66L481.44 239.11L481.13 238.77L480.44 238.05L479.98 237.6L478.97 236.66L478.34 236.08L476.98 234.87L476.15 234.13L473.4 231.75L471.73 230.36L471.03 229.8L469.74 228.8L469.3 228.48L468.55 228M484.03 216.2L483.4 216.48L482.18 217.11L481.73 217.48L481 218.22V218.55L481.24 219.77L481.62 221.1L481.9 221.96L482.51 223.79L482.88 224.82L483.65 226.94L484.07 228.03L484.92 230.17L485.33 231.13L486.14 232.94L486.49 233.66L487.16 234.97L487.42 235.37L487.87 236H487.99L489.54 235.76L490.45 235.38L490.82 235.1L491.48 234.49L491.68 234.13L492 233.37V232.95L491.8 231.83L491.48 230.61L491.25 229.83L490.75 228.18L490.46 227.25L489.85 225.36L489.53 224.39L488.88 222.46L488.55 221.55L487.92 219.78L487.64 219.02L487.1 217.62L486.88 217.12L486.5 216.27L486.38 216.13L485.22 215.91M213 363.28V363.7ZM100 272.5L100.59 273.87ZM149.41 156.37L149.09 156.62L148.22 157.4L147.76 157.83L146.68 158.91L144.94 160.75L146.67 158.91L147.75 157.83L148.22 157.4L149.08 156.62L149.39 156.37L149.93 156H149.95L149.41 156.37Z" fill="#4DA3D2"/>
<path d="M381.5 511.62L381.7 512.63L381.76 513.4L381.85 515.11L381.86 516.21L381.85 518.54L381.8 519.92L381.75 523.44L381.78 525.57L381.83 526.45L381.95 528.08L382.03 528.63L382.21 529.54L382.33 529.66L383.15 529.99L384.14 530.19L384.8 530.27L386.21 530.43L387.02 530.48L388.7 530.57L389.59 530.59L393.2 530.75L395.04 530.95L395.69 531.09L396.81 531.38L397.1 531.54L397.5 531.89L397.43 532.07L397.12 532.43L396.71 532.61L395.71 532.96L394.95 533.12L393.26 533.42L392.17 533.55L389.81 533.77L388.39 533.85L380.91 534.22L381.21 562.03L381.5 589.84L383.92 592.42L386.37 594.25L388.19 594.89L389.18 594.93L391.21 594.82L392.3 594.48L394.52 593.61L395.68 592.89L397.22 592L398.05 591.58L398.37 591.46L398.94 591.28H399.12L399.43 591.32L399.49 591.43L399.54 591.71L399.46 591.93L399.24 592.42L399.03 592.75L398.54 593.47L398.2 593.91L397.45 594.84L396.97 595.38L393.33 598.46L390.44 599.98L388.72 600.49L384.48 601.55L382.49 601.75L378.59 601.93L376.76 601.68L373.17 600.95L371.49 600.26L368.19 598.63L366.64 597.49L364.98 596.05L364.05 594.97L363.68 594.31L362.98 592.88L362.7 591.96L362.19 589.98L362 588.72L361.65 585.99L361.52 584.28L361.41 582.51L361.36 581.52L361.27 579.48L361.24 578.35L361.18 576.01L361.15 574.73L361.11 572.07L361.09 570.62L361.07 567.63L361.06 565.99L361.05 562.63L361.04 560.81L361 534.11L356.98 533.81L355.19 533.6L354.26 533.4L353.93 533.29L353.37 533.04L353.22 532.89L353.01 532.59L353.04 532.43L353.18 532.09L353.39 531.91L353.89 531.54L354.27 531.34L355.12 530.95L355.68 530.75L356.89 530.34L357.62 530.14L360.43 529.09L362.24 528.09L363.25 527.34L364.28 526.53L364.84 526.05L366.01 525.03L366.67 524.42L368.03 523.14L368.8 522.38L370.39 520.8L371.3 519.89L374.8 516.44L376.92 514.42L377.81 513.61L379.46 512.15L380.02 511.7L380.54 511.3L380.72 511.18L381.04 511H381.11M339.33 529.28L339.63 529.79L339.8 530.56L339.88 531.17L340.02 532.55L340.08 533.49L340.19 535.54L340.24 536.83L340.32 539.59L340.36 541.26L340.42 544.8L340.44 546.87L340.47 551.23L340.49 553.73L340.5 558.96V594.17L343.25 596.54L345.19 598.37L345.64 598.87L345.78 599.05L346 599.38V599.45L345.88 599.53L345.66 599.56L345.1 599.63L344.68 599.66L343.73 599.72L343.13 599.75L341.84 599.81L341.08 599.83L337.76 599.91L335.75 599.94L331.55 599.97H329.25L323.78 599.95L320.84 599.93L319.69 599.92L317.58 599.87L316.8 599.84L315.42 599.75L314.96 599.69L314.19 599.56L314 599.46L313.74 599.26L313.76 599.13L313.89 598.84L314.06 598.66L314.48 598.28L314.76 598.05L316.73 596.59L317.92 595.86L318.26 595.75L318.57 595.08L318.76 594.12L318.85 593.4L319.02 591.82L319.1 590.84L319.25 588.75L319.32 587.54L319.45 585.02L319.51 583.64L319.62 580.8L319.66 579.29L319.83 573.05L319.87 569.8L319.93 563.28L319.92 560.19L319.9 557.13L319.88 555.69L319.84 552.87L319.8 551.59L319.72 549.11L319.67 548.03L319.56 545.97L319.5 545.14L319.35 543.61L319.27 543.08L319.09 542.17L318.99 541.98L317.44 540.22L315.99 539.19L315.28 538.91L313.68 537.97L313.44 537.65L313.42 537.5L313.46 537.21L313.59 537.09L314.09 536.79L314.66 536.53L315.04 536.37L316.82 535.69L318.01 535.27L320.55 534.41L321.99 533.94L324.96 533L326.48 532.54L329.53 531.63L330.97 531.22L333.76 530.44L334.94 530.13L337.14 529.59L337.9 529.43L338.6 529.31L338.84 529.28L339.25 529.25M332.45 499.12L333.77 499.36L334.34 499.6L335.43 500.16L335.98 500.6L337.12 501.6L337.8 502.3L339.42 504.14L340.16 505.25L340.39 505.83L340.78 507.01L340.87 507.7L341 509.18V510.11L340.88 512.46L340.66 513.71L340.45 514.25L339.97 515.26L339.61 515.75L338.8 516.71L338.25 517.23L337.03 518.28L336.37 518.7L335 519.47L334.28 519.75L332.82 520.24L332.07 520.38L330.57 520.6H329.81L328.3 520.54L327.56 520.4L326.09 520.06L325.39 519.79L324.01 519.17L323.37 518.75L322.13 517.86L321.58 517.3L320.3 515.81L319.7 514.82L319.51 514.26L319.19 513.07L319.11 512.34L319 510.76V509.76L319.11 507.09L319.33 505.73L319.55 505.17L320.08 504.1L320.5 503.58L321.44 502.52L322.11 501.9L323.85 500.46L324.94 499.79L325.52 499.57L326.73 499.21L327.44 499.12L328.96 499H329.91M330 405H314V386H330M319.47 18.71L320.12 19.08L320.54 19.39L321.44 20.09L321.95 20.52L323 21.45L323.54 21.98L324.22 22.64L324.83 23.25L325.21 23.63L326.03 24.44L326.51 24.92L327.52 25.93L328.09 26.5L330.57 28.98L332.06 30.48L335.2 33.64L337 35.44L340.73 39.2L342.79 41.28L347.04 45.56L349.33 47.87L354.02 52.59L356.5 55.1L361.54 60.19L364.17 62.84L369.5 68.22L372.24 70.99L377.77 76.58L380.59 79.43L391.96 90.93L397.66 96.69L409 108.17L414.44 113.69L419.84 119.16L422.44 121.81L427.58 127.02L430.02 129.5L438.8 138.41L444.44 144.13L447.15 146.88L452.5 152.32L455.07 154.93L460.15 160.09L462.6 162.57L467.42 167.47L469.74 169.82L474.32 174.47L476.52 176.7L480.87 181.11L482.96 183.23L487.08 187.41L489.06 189.42L492.97 193.39L494.85 195.3L498.56 199.07L500.35 200.88L507.31 207.94L510.54 211.21L516.83 217.59L519.76 220.56L525.49 226.36L528.17 229.07L533.42 234.38L535.89 236.89L540.76 241.81L543.08 244.15L547.66 248.78L549.87 251.01L554.26 255.43L556.41 257.6L564.94 266.2L566.54 267.81L563.6 264.85L560.11 261.34L552.88 254.07L549.25 250.41L541.88 243L538.21 239.3L530.93 231.97L527.32 228.34L520.36 221.32L516.93 217.87L510.5 211.39L508.93 209.81L505.94 206.79L501.68 202.5L462.02 162.5L453.79 171L453.23 171.58L451.88 172.97L451.18 173.7L449.61 175.33L447.99 177L444.31 180.82L442.44 182.77L438.58 186.78L433.08 192.5L432.22 193.39L430.35 195.35L429.39 196.34L427.36 198.46L425.3 200.59L421.01 205.06L418.88 207.28L414.81 211.51L413.83 212.53L412.01 214.42L409.53 217L408.77 217.79L406.86 219.78L405.85 220.83L403.5 223.28L402.28 224.55L399.59 227.36L398.21 228.8L395.26 231.88L392.27 235L385.9 241.66L376.49 251.5L373.47 254.66L367.17 261.24L364.03 264.52L358.03 270.77L356.58 272.28L353.86 275.11L352.53 276.49L350.13 278.99L348.97 280.19L346.96 282.27L344.51 284.81L343.82 285.51L342.27 287.11L341.47 287.94L339.73 289.73L337.96 291.55L334.13 295.52L332.2 297.51L328.4 301.45L323.23 306.81L311.96 318.5L268.91 275L266.27 272.34L261.16 267.18L258.63 264.62L253.71 259.65L251.27 257.19L246.54 252.42L244.2 250.05L239.66 245.47L235.17 240.94L226.74 232.44L222.62 228.28L214.93 220.53L211.17 216.74L204.19 209.72L200.79 206.29L194.51 199.98L191.45 196.91L185.85 191.28L183.13 188.56L178.19 183.61L175.81 181.22L171.52 176.93L169.45 174.87L165.79 171.23L164.04 169.49L160.99 166.47L159.55 165.04L157.1 162.63L155.95 161.51L154.08 159.69L153.22 158.86L151.91 157.63L151.33 157.08L150.57 156.4L150.04 156H149.93L149.39 156.37L149.08 156.62L148.22 157.4L148.14 157.47L149.02 156.55L152.9 152.47L154.59 150.7L156.22 148.98L156.96 148.2L158.4 146.69L159.03 146.03L163.03 141.82L165.85 138.85L167.31 137.32L173.25 131.08L176.19 128L179.11 124.94L180.52 123.47L183.3 120.56L184.61 119.2L187.15 116.54L188.31 115.34L190.54 113.02L191.5 112.02L194.78 108.61L197.33 105.96L198.75 104.49L201.68 101.44L203.26 99.8L206.47 96.46L208.14 94.71L215 87.56L218.46 83.96L225.34 76.79L228.5 73.5L233.43 68.36L236.86 64.79L238.61 62.97L245.7 55.61L249.15 52.05L252.56 48.52L254.18 46.84L257.38 43.55L258.86 42.02L261.73 39.06L263.02 37.75L265.47 35.23L266.5 34.18L281.5 18.86L282.18 26.18L282.34 28.06L282.47 29.69L282.55 30.67L282.71 32.73L282.8 33.9L282.98 36.31L283.08 37.62L283.49 43.13L283.71 46.12L284.14 52.22L284.36 55.27L284.79 61.34L284.98 64.16L285.17 66.94L285.26 68.23L285.43 70.75L285.5 71.89L285.65 74.09L285.71 75.04L285.82 76.83L285.87 77.55L285.94 78.87L285.97 79.33L286 80.09V80.24L285.86 80.7L285.62 81.16L285.44 81.45L284.57 82.8L283.93 83.67L282.53 85.53L281.69 86.57L279.92 88.73L278.95 89.85L271.89 98H246.1H241.67H238.98L237.77 98.01H235.42L234.36 98.02L232.32 98.03L231.41 98.04L228.03 98.09L226.7 98.13L224.27 98.23L223.33 98.3L221.64 98.47L220.99 98.58L219.82 98.82L219.36 98.97L217.79 99.7L216.99 100.25L214.91 101.77L213.73 102.75L213.24 103.24L211.51 105.28L210.95 106.51L210.43 107.79L210.23 108.52L209.86 110.04L209.73 110.92L209.48 112.76L209.4 113.82L209.24 116.05L209.18 117.33L209.09 119.93L209.05 121.42V122.06L209.08 124.34L209.17 125.14L209.4 126.56L209.6 127.05L210.06 127.92L210.39 128.25L211.15 129.41L211.52 130.49L211.65 131.24L211.86 132.88L211.92 133.96L212 136.31V137.81L212.08 141.72L212.22 143.67L212.35 144.38L212.64 145.65L212.85 146.09L213.33 146.86L213.65 147.13L214.21 147.62L214.46 147.76L214.66 147.82L215.11 147.94L215.46 148L216.24 148.1L216.79 148.15L218.01 148.25L218.82 148.29L220.6 148.38L221.74 148.42L224.2 148.51L225.72 148.55L228.97 148.63L230.94 148.67L235.1 148.76L237.57 148.8L240.1 148.84L241.47 148.87L244.28 148.91L245.79 148.93L248.89 148.98L250.56 149.01L253.96 149.06L255.79 149.08L259.51 149.14L261.5 149.17L265.56 149.22L267.73 149.25L272.14 149.31L274.48 149.34L279.26 149.41L281.79 149.44L286.95 149.51L289.67 149.55L295.23 149.62L298.16 149.66L304.12 149.74L307.26 149.78L313.64 149.87L317 149.91L324.84 150.01L329.81 150.07L332.17 150.1L336.82 150.15L339.01 150.17L343.32 150.21L345.35 150.23L349.33 150.26L351.19 150.27L354.84 150.29H356.54L359.85 150.31H361.38H364.37H365.73L368.39 150.3L369.59 150.29L371.91 150.27L372.95 150.26L374.94 150.23L375.82 150.21L377.48 150.17L378.19 150.15L379.52 150.1L380.07 150.08L381.07 150.02L381.45 149.99L382.13 149.92L382.35 149.88L382.7 149.81L382.75 149.76L383.28 148.86L383.56 147.84L383.67 147.14L383.86 145.63L383.92 144.7L384.01 142.75V141.63L384.11 138.08L384.28 136.17L384.44 135.38L384.79 133.92L385.05 133.28L385.62 132.07L386 131.5L387.02 129.39L387.53 127.68L387.71 126.71L388.02 124.72L388.1 123.64L388.2 121.46L388.17 120.34L387.85 115.8L387.39 113.68L386.88 111.6L386.55 110.65L385.85 108.82L385.42 108.03L383.94 105.51L382.95 104.14L382.37 103.58L381.13 102.56L380.34 102.15L378.62 101.41L377.5 101.13L375.06 100.62L373.49 100.43L371.86 100.25L370.94 100.17L369.03 100.02L367.96 99.96L365.74 99.83L364.51 99.78L361.96 99.67L360.55 99.62L357.63 99.53L356.02 99.48L352.71 99.39L350.89 99.34L325.85 98.68L320.36 92.21L317.32 88.65L315.72 86.73L315.1 85.91L313.99 84.35L313.6 83.61L312.93 82.14L312.73 81.35L312.41 79.71L312.37 78.73L312.35 76.65L312.43 75.36L312.65 72.59L312.82 70.85L313 69.04L313.1 68.04L313.31 65.95L313.43 64.79L314.84 50.79L315.29 46.43L315.49 44.59L315.67 42.81L315.76 42.04L315.92 40.58L315.98 40L316.4 36.21L316.69 33.5L316.83 32.16L317.12 29.53L317.24 28.35L317.47 26.11L317.56 25.25L317.86 22.79L318.09 21.31L318.21 20.71L318.46 19.6L318.57 19.23L318.79 18.63L318.89 18.57M139.24 166.79L136.34 169.83L134.81 171.43L131.29 175.12L129.46 177.03L125.42 181.26L123.34 183.42L118.89 188.06L116.63 190.43L111.88 195.37L104.55 203L102.07 205.58L96.6096 211.25L93.8196 214.16L87.8696 220.35L84.8496 223.48L78.6096 229.98L75.4696 233.25L69.1196 239.86L65.9496 243.16L59.6896 249.68L56.5896 252.91L50.5996 259.14L56.5796 252.91L59.6896 249.68L65.9496 243.16L69.1096 239.86L75.4596 233.25L78.5996 229.98L84.8396 223.48L87.8496 220.35L93.7996 214.16L96.5896 211.25L102.04 205.58L104.52 203L112.14 195.07L117.35 189.64L119.97 186.9L125.22 181.43L127.8 178.73L132.93 173.38L135.4 170.79L140.12 165.86M296.58 227.1L295.9 227.21L295.51 227.36L294.78 228.03L294.43 228.86L294.31 229.55L294.12 231.1L294.07 232.21L294.03 233.38L294.02 234.06L294 235.48V236.3L294.05 239.6L294.14 241.59L294.2 242.41L294.33 243.91L294.41 244.41L294.57 245.24L294.67 245.33L295.39 245.84L295.84 245.94L296.79 246.03L297.26 245.94L298.2 245.66L298.57 245.41L299.24 244.82L299.39 244.42L299.63 243.27L299.77 242.06L299.82 241.3L300 237.91V236.04L299.93 233.58L299.82 232.14L299.73 231.52L299.53 230.35L299.39 229.86L299.09 228.95L298.9 228.59L298.51 227.94L298.28 227.72L297.79 227.32L297.51 227.22L296.92 227.08M297.71 173.19L296.57 173.54L296 173.99L295.79 174.38L295.41 175.28L295.26 175.95L294.98 177.46L294.84 178.5L294.69 179.97L294.59 181.2L294.55 181.93L294.39 185.1L294.33 186.99L294.22 190.95L294.18 193.08L294.12 197.42L294.1 199.58L294.09 203.88L294.1 205.88L294.15 209.74L294.19 211.36L294.23 212.92L294.26 213.6L294.32 214.89L294.35 215.41L294.43 216.37L294.47 216.71L294.56 217.29L294.61 217.42L295.11 218.23L295.53 218.49L296.45 218.9L296.96 218.95H298L298.45 218.78L299.3 218.32L299.55 217.91L299.73 217.22L299.84 216.38L299.9 215.79L300.01 214.5L300.07 213.72L300.17 212.05L300.22 211.11L300.42 207.03L300.51 204.69L300.67 199.86L300.73 197.36L300.84 192.35L300.87 189.95L300.91 185.3L300.9 183.29L300.89 181.35L300.88 180.5L300.84 178.87L300.82 178.2L300.76 176.96L300.72 176.5L300.64 175.71L300.59 175.51L300.17 174.26L299.82 173.68L299.6 173.5L299.11 173.21L298.8 173.16L298.14 173.13M315.26 211.39L314.81 211.5L314.55 211.69L313.98 212.16L313.61 212.53L312.85 213.41L312.57 213.92L312.53 214.15L312.51 214.62L312.61 214.85L312.86 215.34L313.09 215.61L313.85 216.34L314.32 216.59L315.27 217H315.65L316.96 216.51L317.53 215.79L317.65 215.31L317.76 214.31L317.62 213.8L317.2 212.78L316.78 212.35L315.93 211.61L315.48 211.38M276.39 211.16L275 211.95L274.36 212.83L274.22 213.34L274.07 214.39L274.2 214.87L274.61 215.76L275.06 216.04L275.86 216.41L276.29 216.45L277.13 216.44L277.53 216.3L278.29 215.95L278.6 215.66L279.17 215.01L279.33 214.58L279.48 213.17L279.2 212.32L278.92 211.99L278.26 211.4L277.83 211.25L276.91 211.06M332.77 182.08L332.25 182.34L332.03 182.62L331.62 183.29L331.44 183.79L331.12 184.91L330.99 185.65L330.74 187.26L330.64 188.26L330.45 190.41L330.38 191.69L330.24 194.41L330.18 195.99L330.09 199.06L330.05 200.88V201.67V203.2L330.07 203.86L330.1 205.11L330.14 205.65L330.31 207.55L330.46 208.19L330.8 209.26L331.03 209.54L332.03 210.51L332.54 210.68L333.54 210.84L334.01 210.63L334.91 210.03L335.29 209.45L335.99 208.14L336.22 207.22L336.53 205.16L336.69 203.15L336.74 201.94L336.82 199.4L336.83 198.02L336.82 195.22L336.78 193.83L336.69 191.01L336.62 189.4L336.57 188.71L336.48 187.42L336.42 186.88L336.3 185.87L336.22 185.46L335.89 184.03L335.65 183.59L335.13 182.85L334.78 182.63L333.67 182.1L333.04 181.99M254.5 177.5L254.22 189.94L254.15 194.88V197.87L254.17 199.12L254.22 201.42L254.26 202.21L254.31 202.93L254.34 203.18L254.4 203.6L254.44 203.69L254.86 204.38L255.2 204.62L255.96 205H256.35L257.4 204.86L257.99 204.61L258.24 204.39L258.69 203.87L258.88 203.5L259.21 202.66L259.34 202.11L259.56 200.9L259.64 200.13L259.77 198.49L259.8 197.49L259.85 195.36L259.84 194.09L259.82 191.42L259.78 189.86L259.5 177.5M313.5 160.5L312.77 180.92L312.6 185.96L312.52 188.95L312.5 190.27L312.46 192.79L312.45 193.89V195.97L312.47 196.85L312.51 198.5L312.54 199.18L312.63 200.42L312.68 200.9L312.8 201.76L312.88 202.06L313.04 202.55L313.14 202.67L313.83 203.43L314.15 203.63L314.78 203.94L315.11 203.92L315.78 203.76L316.16 203.51L316.96 202.89L317.45 202.41L318.27 200.87L318.46 200.05L318.53 199.5L318.66 198.3L318.71 197.52L318.79 195.85L318.82 194.8L318.85 192.55V191.18V188.26L318.84 186.52L318.8 182.83L318.77 180.66L318.5 160.5M276.96 159.11L276.48 159.31L276.23 159.53L275.73 160.05L275.44 160.44L274.74 162.24L274.56 163.17L274.49 163.76L274.35 165.04L274.3 165.82L274.19 167.49L274.16 168.49L274.09 170.62L274.07 171.87L274.03 174.52L274.02 176.05L274 179.27V181.11L274.05 188.51L274.13 192.97L274.18 194.82L274.24 196.59L274.28 197.35L274.35 198.79L274.38 199.36L274.46 200.4L274.5 200.76L274.58 201.36L274.63 201.47L275.19 202.33L275.67 202.57L276.75 202.89L277.38 202.8L278.57 202.33L278.85 201.98L278.97 201.71L279.2 201.11L279.3 200.68L279.48 199.74L279.56 199.12L279.71 197.76L279.79 196.9L279.94 195.04L280.01 193.9L280.17 191.46L280.26 190L280.62 183.28L280.78 179.22L280.82 177.4L280.87 173.9L280.86 172.36L280.81 169.42L280.74 168.16L280.58 165.78L280.47 164.79L280.2 162.96L280.03 162.24L279.67 160.96L279.44 160.52L278.97 159.77L278.69 159.61L277.74 159.14L277.2 159.05M349.04 162.44L348.59 162.73L347.74 163.46L347.41 164.07L346.85 165.43L346.71 166.32L346.51 168.58L346.43 170.57L346.41 171.72L346.39 176.7L346.47 179.26L346.55 181.8L346.61 182.98L346.74 185.25L346.82 186.2L346.99 187.97L347.08 188.6L347.28 189.64L347.39 189.82L347.82 190.44L348.04 190.63L348.5 190.91L348.78 190.92L349.36 190.87L349.72 190.72L350.5 190.34L351 190.02L351.4 189.51L351.64 188.93L351.75 188.54L352.18 186.71L352.35 185.49L352.65 182.87L352.76 181.38L352.95 178.32L352.99 176.74L353.04 173.58L353.01 172.08L352.92 169.17L352.82 167.93L352.58 165.61L352.39 164.79L352.2 164.03L352.09 163.76L351.86 163.3L351.72 163.19L350.08 162.4M239.26 154.14L238.67 154.39L238.31 154.61L237.37 155.58L236.93 156.63L236.78 157.49L236.63 158.42L236.58 159L236.47 160.22L236.43 160.96L236.34 162.54L236.31 163.48L236.24 165.45L236.21 166.61L236.14 171.01V173.77L236.17 174.96L236.23 177.19L236.28 178.02L236.34 178.78L236.37 179.08L236.44 179.6L236.48 179.75L236.92 180.76L237.32 181.13L238.22 181.78L238.73 181.94L239.76 182.13L240.23 182.02L241.09 181.66L241.35 181.24L241.46 180.85L241.54 180.37L241.58 180.03L241.76 178.42L241.85 177.3L242.04 174.88L242.13 173.46L242.31 170.5L242.39 168.9L242.53 165.77L242.59 163.95L242.6 163.16L242.62 161.66L242.61 161.02L242.59 159.81L242.55 159.3L242.38 157.5L242.21 156.87L241.82 155.79L241.54 155.41L240.76 154.52L240.28 154.17L240.04 154.11L239.54 154.06M333.76 164.28L333.46 164.41L332.83 164.73L332.5 165L331.97 165.76L331.66 166.51L331.54 166.97L331.11 169.03L331.03 170.16L330.94 172.43L331.05 173.37L331.19 174.25L331.3 174.6L331.54 175.21L331.71 175.38L332.31 175.71L332.81 175.79L333.9 175.87L334.46 175.79L335.49 175.45L335.99 175.03L336.16 174.66L336.46 173.83L336.56 173.22L336.74 171.85L336.8 170.91L336.64 167.43L336.16 165.68L335.77 165.14L335.35 164.65L335.11 164.5L334.61 164.27L334.33 164.25M256.96 159.5L255.64 159.64L255.05 159.92L254.86 160.22L254.53 160.94L254.43 161.53L254.26 162.86L254.19 163.82L254.32 167.3L254.5 168.29L254.63 168.68L254.9 169.38L255.06 169.57L255.84 170.37L256.24 170.57L257.03 170.86L257.41 170.84L258.16 170.69L258.5 170.47L259.16 169.95L259.44 169.57L259.97 168.73L260.16 168.22L260.5 167.14L260.59 166.53L260.7 165.27L260.65 164.59L260.49 163.21L260.28 162.5L259.75 161.07L259.34 160.37L259.08 160.14L258.53 159.75L258.18 159.65L257.43 159.5M296.68 159.57L295.64 160.41L295.17 161.24L295.07 161.72L294.96 162.69L295.06 163.14L295.35 164.02L295.67 164.33L296.41 164.84L296.89 164.94L297.9 165.03L298.41 164.94L299.41 164.67L299.81 164.41L300.52 163.82L300.67 163.42L300.68 161.82L300.19 160.81L299.77 160.41L298.85 159.69L298.31 159.53L297.21 159.37M227.82 129.51H229.96L231.15 129.52L233.62 129.53L234.96 129.54L237.73 129.56L239.22 129.58L245.44 129.63L248.9 129.66L256.03 129.74L259.86 129.78L267.7 129.87L271.8 129.92L280.13 130.02L284.4 130.07L301.71 130.3L310.27 130.42L318.79 130.54L322.92 130.6L331.08 130.73L334.95 130.79L342.53 130.91L346.04 130.97L352.84 131.08L355.87 131.14L358.84 131.19L360.22 131.22L362.91 131.27L364.14 131.3L366.51 131.35L367.58 131.37L369.62 131.42L370.51 131.44L372.19 131.48L372.88 131.5L374.17 131.54L374.67 131.55L375.54 131.59L375.82 131.6L376.25 131.63L376.3 131.64L377.2 132.13L377.6 132.67L377.71 133.12L377.87 134.16L377.88 134.92L377.86 136.65L377.8 137.83L377.5 143.5L346 143.6H337.06L330.75 143.59L327.47 143.57L314 143.49L307 143.42L292.91 143.25L285.94 143.15L279 143.04L275.61 142.98L268.88 142.87L265.63 142.8L259.22 142.67L256.18 142.61L250.2 142.47L247.41 142.4L241.98 142.26L239.51 142.18L234.73 142.04L232.63 141.97L228.62 141.82L226.94 141.75L223.81 141.6L222.61 141.53L221.48 141.46L221.01 141.42L220.14 141.35L219.82 141.32L219.23 141.25L219.04 141.21L218.75 141.15L218.71 141.11L218.42 140.35L218.31 139.51V138.96L218.33 137.77L218.39 137.08L218.54 135.64L218.67 134.86L219.52 129.5H225.01M307.5 86.07L314.5 94.97L317.34 98.47L319.11 100.57L319.88 101.43L321.33 103.02L321.87 103.55L322.36 104.03L322.56 104.19L322.9 104.45L323 104.5L323.82 104.64L324.86 104.74L325.59 104.79L327.21 104.9L328.21 104.96L330.32 105.07L331.55 105.12L334.1 105.23L335.51 105.29L338.41 105.4L339.97 105.45L346.48 105.65L349.99 105.73L375.48 106.32L378.24 109.08L379.71 110.76L380.35 111.83L380.54 112.48L380.85 113.88L380.91 114.84L380.97 115.85L380.98 116.44L381 117.69V125L354.25 124.84L345.25 124.77L338.8 124.72L335.38 124.68L328.43 124.61L324.82 124.57L317.52 124.49L313.78 124.44L298.65 124.24L291.06 124.14L275.97 123.91L268.81 123.79L261.73 123.68L258.36 123.62L251.72 123.5L248.62 123.44L242.56 123.33L239.79 123.27L234.45 123.16L232.09 123.11L227.58 123L225.69 122.96L223.86 122.91L223.05 122.88L221.48 122.84L220.81 122.82L219.52 122.77L218.99 122.75L218.01 122.71L217.64 122.69L216.97 122.66L216.75 122.64L216.42 122.61L216.38 122.59L215.87 122.01L215.64 121.28L215.59 120.73L215.51 119.5L215.53 118.68L215.59 116.91L215.68 115.82L216.05 112.47L216.38 110.81L216.63 110.15L217.19 108.94L217.59 108.4L218.49 107.33L219.11 106.75L222.03 104H274.58L278.63 99.75L280.5 97.72L281.89 96.17L282.6 95.35L284.01 93.71L284.67 92.93L285.94 91.4L286.46 90.75L290.24 86M297.42 105.38L296.71 105.93L296.48 106.35L296.12 107.28L296.1 107.84L296.16 108.98L296.39 109.57L297 110.59L297.43 110.78L298.35 110.96L298.8 110.79L299.68 110.27L299.99 109.8L300.5 108.71V108L300.04 106.09L299.3 105.3L298.75 105.19M298.67 92.49L298.21 92.57L297.96 92.73L297.46 93.11L297.16 93.41L296.33 94.89L296.17 95.99L296.33 96.42L296.88 97.25L297.37 97.54L298.43 98H299L300.76 97.51L301.53 96.79L301.68 96.31L301.81 95.31L301.61 94.79L301.04 93.77L300.46 93.35L299.45 92.7L298.91 92.48M301.99 0.379999L302.93 0.969999L303.5 1.41L304.69 2.35L305.33 2.93L306.64 4.13L307.29 4.78L309.1 6.65L310.06 7.74L310.43 8.28L311.09 9.37L311.31 9.99L311.7 11.3L311.8 12.11L311.94 13.86L311.92 14.97L311.84 17.37L311.72 18.9L311.6 20.48L311.51 21.36L311.34 23.19L311.24 24.21L311.03 26.32L310.91 27.49L310.66 29.91L310.52 31.24L309.61 40.05L309.03 45.69L308.76 48.36L308.23 53.58L307.99 55.99L307.53 60.68L307.32 62.77L306.93 66.78L306.77 68.5L306.47 71.72L306.36 72.99L306.15 75.29L306.09 76.05L306.04 76.75L306.02 76.99L306 77.41V77.51L305.91 78.04L305.7 78.23L305.16 78.58L304.67 78.69L303.53 78.88L302.69 78.93L300.82 79H299.56L297.02 78.93L295.49 78.83L294.86 78.75L293.69 78.58L293.3 78.48L292.66 78.26L292.59 78.15L292.44 77.31L292.3 76.12L292.22 75.23L292.03 73.29L291.93 72.06L291.7 69.45L291.58 67.93L291.33 64.75L291.2 62.98L290.92 59.32L290.78 57.34L290.49 53.29L290.34 51.15L290.05 46.81L289.9 44.56L287.73 11.83L293.58 5.91L295.98 3.62L297.51 2.27L298.18 1.74L299.45 0.77L299.94 0.469999L300.79 0H301.01L301.99 0.379999Z" fill="#F58D10"/>
</svg>
